<svg width="171" height="73" viewBox="0 0 171 73" fill="none" xmlns="http://www.w3.org/2000/svg">
<path d="M26.0676 37.8341C26.0676 44.3727 21.9593 48.481 14.003 48.481C10.184 48.481 6.30714 47.4106 3.819 46.3112L1.41766 47.7867H1.3598L0.549705 35.4328H0.578637C1.64912 37.5448 3.93473 41.4795 7.05937 44.3727H7.11723L7.05937 44.4306C9.1714 46.369 11.7174 47.8445 14.4081 47.8445C17.3591 47.8445 18.6321 46.2533 18.6321 43.9098C18.6321 41.5085 16.9251 40.0329 11.6885 38.8467C3.00891 36.9083 0 31.961 0 26.4928C0 21.0247 3.52969 16.5981 11.3702 16.5981C14.6106 16.5981 18.1403 17.6108 20.4837 18.4787L22.943 16.8296H23.0008L23.753 28.3734H23.7241C20.5416 23.1946 16.0572 17.2636 11.2256 17.2636C8.70849 17.2636 7.52228 18.5655 7.52228 20.5039C7.52228 23.2235 9.22926 24.8727 14.7552 26.2035C22.1329 28.0262 26.0676 31.3245 26.0676 37.8341Z" fill="#222222"/>
<path d="M67.7571 16.8003H79.1563V16.8582C77.6518 18.1312 75.4819 21.0244 73.9196 24.2647L62.4626 48.3939H62.4048L51.671 30.5429L41.4002 48.3939H41.3424L29.1042 23.2521C27.3104 19.5199 25.806 17.9576 24.3594 16.8582V16.8003H47.0998V16.8582C44.2066 18.0154 42.76 20.1275 44.1488 23.7439L48.4307 34.9116L58.5858 16.5688H58.6436L68.7698 33.6386L70.1585 29.9643C72.0969 25.0169 72.0969 18.7387 67.7571 16.8871V16.8003Z" fill="#222222"/>
<path d="M78.2031 47.555V47.4971C80.6623 45.6744 81.646 45.0958 81.646 42.3183V24.8146C81.646 22.2107 81.2988 21.4874 79.1868 20.5905L78.2321 20.1565V20.0987L94.5207 15.9325H94.5786V42.3183C94.5786 45.0379 95.5333 45.7612 97.2981 47.4971V47.555H78.2031ZM80.6045 7.51333C80.6045 3.95471 83.6134 0.945801 87.2877 0.945801C90.7306 0.945801 93.7974 3.95471 93.7974 7.51333C93.7974 11.1877 90.7306 14.1966 87.2877 14.1966C83.6134 14.2255 80.6045 11.1877 80.6045 7.51333Z" fill="#222222"/>
<path d="M123.886 37.8341C123.886 44.3727 119.778 48.481 111.821 48.481C108.002 48.481 104.125 47.4106 101.637 46.3112L99.236 47.7867H99.1782L98.3681 35.4328H98.4259C99.4964 37.5448 101.782 41.4795 104.907 44.3727H104.965L104.907 44.4306C107.019 46.369 109.565 47.8445 112.255 47.8445C115.206 47.8445 116.479 46.2533 116.479 43.9098C116.479 41.5085 114.772 40.0329 109.536 38.8467C100.827 36.9083 97.8184 31.961 97.8184 26.4928C97.8184 21.0247 101.348 16.5981 109.189 16.5981C112.429 16.5981 115.959 17.6108 118.302 18.4787L120.761 16.8296H120.819L121.571 28.3734H121.514C118.331 23.1946 113.876 17.2636 109.044 17.2636C106.527 17.2636 105.341 18.5655 105.341 20.5039C105.341 23.2235 107.048 24.8727 112.574 26.2035C119.922 28.0262 123.886 31.3245 123.886 37.8341Z" fill="#222222"/>
<path d="M158.286 42.3181C158.286 45.0956 159.241 45.761 161.729 47.4969V47.5548H142.605V47.4969C144.428 45.9924 145.383 45.0956 145.383 42.3181V25.4798C145.383 22.6444 144.544 21.3136 142.431 21.3136C141.043 21.3136 139.712 21.6897 138.641 22.818V42.3181C138.641 45.0956 139.596 45.761 142.084 47.4969V47.5548H122.295V47.4969C124.754 45.8188 125.738 45.0956 125.738 42.3181V10.2327C125.738 7.62881 125.448 6.84765 123.626 5.95076L122.295 5.28533V5.22747L138.584 1.00342H138.641V21.9211C141.361 18.1311 144.486 15.8165 149.607 15.8165C155.219 15.8165 158.286 19.0858 158.286 26.0005V42.3181Z" fill="#222222"/>
<path d="M102.695 56.53C103.795 56.53 104.76 56.745 105.59 57.175C106.43 57.605 107.075 58.22 107.525 59.02C107.985 59.81 108.215 60.73 108.215 61.78C108.215 62.83 107.985 63.75 107.525 64.54C107.075 65.32 106.43 65.925 105.59 66.355C104.76 66.785 103.795 67 102.695 67H99.035V56.53H102.695ZM102.62 65.215C103.72 65.215 104.57 64.915 105.17 64.315C105.77 63.715 106.07 62.87 106.07 61.78C106.07 60.69 105.77 59.84 105.17 59.23C104.57 58.61 103.72 58.3 102.62 58.3H101.135V65.215H102.62ZM113.612 58.225V60.85H117.137V62.515H113.612V65.29H117.587V67H111.512V56.515H117.587V58.225H113.612ZM130.175 67H128.075L123.32 59.815V67H121.22V56.515H123.32L128.075 63.715V56.515H130.175V67ZM141.101 56.53V58.225H138.311V67H136.211V58.225H133.421V56.53H141.101ZM150.778 65.005H146.608L145.918 67H143.713L147.478 56.515H149.923L153.688 67H151.468L150.778 65.005ZM150.208 63.325L148.693 58.945L147.178 63.325H150.208ZM158.92 65.335H162.37V67H156.82V56.53H158.92V65.335Z" fill="#B5956F"/>
</svg>
