<svg version="1.2" xmlns="http://www.w3.org/2000/svg" viewBox="0 0 171 50" width="171" height="50">
	<title>logo-svg</title>
	<style>
		.s0 { fill: #222222 } 
		.s1 { fill: #b5956f } 
	</style>
	<path id="Layer" class="s0" d="m26.1 37.8c0 6.6-4.1 10.7-12.1 10.7-3.8 0-7.7-1.1-10.2-2.2l-2.4 1.5-0.9-12.4h0.1c1 2.1 3.3 6.1 6.5 9 2.1 2 4.6 3.4 7.3 3.4 3 0 4.2-1.5 4.2-3.9 0-2.4-1.7-3.9-6.9-5.1-8.7-1.9-11.7-6.8-11.7-12.3 0-5.5 3.5-9.9 11.4-9.9 3.2 0 6.7 1 9.1 1.9l2.4-1.7h0.1l0.8 11.6h-0.1c-3.2-5.2-7.6-11.1-12.5-11.1-2.5 0-3.7 1.3-3.7 3.2 0 2.7 1.7 4.4 7.3 5.7 7.3 1.8 11.3 5.1 11.3 11.6z"/>
	<path id="Layer" class="s0" d="m67.8 16.8h11.4v0.1c-1.5 1.2-3.7 4.1-5.3 7.4l-11.4 24.1h-0.1l-10.7-17.9-10.3 17.9h-0.1l-12.2-25.1c-1.8-3.8-3.3-5.3-4.7-6.4v-0.1h22.7v0.1c-2.9 1.1-4.3 3.2-3 6.8l4.3 11.2 10.2-18.3 10.2 17 1.4-3.6c1.9-5 1.9-11.3-2.4-13.1z"/>
	<path id="Layer" class="s0" d="m78.2 47.6v-0.1c2.5-1.8 3.4-2.4 3.4-5.2v-17.5c0-2.6-0.3-3.3-2.4-4.2l-1-0.4v-0.1l16.3-4.2h0.1v26.4c0 2.7 0.9 3.5 2.7 5.2v0.1zm2.4-40.1c0-3.5 3-6.6 6.7-6.6 3.4 0 6.5 3.1 6.5 6.6 0 3.7-3.1 6.7-6.5 6.7-3.7 0-6.7-3-6.7-6.7z"/>
	<path id="Layer" class="s0" d="m123.9 37.8c0 6.6-4.1 10.7-12.1 10.7-3.8 0-7.7-1.1-10.2-2.2l-2.4 1.5-0.8-12.4c1.1 2.1 3.4 6.1 6.5 9h0.1-0.1c2.1 2 4.7 3.4 7.4 3.4 2.9 0 4.2-1.5 4.2-3.9 0-2.4-1.7-3.9-7-5.1-8.7-1.9-11.7-6.8-11.7-12.3 0-5.5 3.5-9.9 11.4-9.9 3.2 0 6.8 1 9.1 1.9l2.5-1.7 0.8 11.6h-0.1c-3.2-5.2-7.6-11.1-12.5-11.1-2.5 0-3.7 1.3-3.7 3.2 0 2.7 1.7 4.4 7.3 5.7 7.3 1.8 11.3 5.1 11.3 11.6z"/>
	<path id="Layer" class="s0" d="m158.3 42.3c0 2.8 0.9 3.5 3.4 5.2v0.1h-19.1v-0.1c1.8-1.5 2.8-2.4 2.8-5.2v-16.8c0-2.9-0.9-4.2-3-4.2-1.4 0-2.7 0.4-3.8 1.5v19.5c0 2.8 1 3.5 3.5 5.2v0.1h-19.8v-0.1c2.5-1.7 3.4-2.4 3.4-5.2v-32.1c0-2.6-0.3-3.4-2.1-4.2l-1.3-0.7v-0.1l16.3-4.2v20.9c2.8-3.8 5.9-6.1 11-6.1 5.6 0 8.7 3.3 8.7 10.2z"/>
	<path id="Layer" fill-rule="evenodd" class="s1" d="m102.7 56.5q1.6 0 2.9 0.7 1.3 0.6 1.9 1.8 0.7 1.2 0.7 2.8 0 1.6-0.7 2.7-0.6 1.2-1.9 1.9-1.3 0.6-2.9 0.6h-3.7v-10.5zm0 8.7q1.6 0 2.5-0.9 0.9-0.9 0.9-2.5 0-1.7-0.9-2.6-0.9-0.9-2.5-0.9h-1.5v6.9zm11-7v2.7h3.5v1.6h-3.5v2.8h3.9v1.7h-6v-10.5h6v1.7zm16.6 8.8h-2.1l-4.7-7.2v7.2h-2.1v-10.5h2.1l4.7 7.2v-7.2h2.1zm10.9-10.5v1.7h-2.8v8.8h-2.1v-8.8h-2.7v-1.7zm9.6 8.5h-4.1l-0.7 2h-2.2l3.7-10.5h2.5l3.7 10.5h-2.2zm-0.6-1.7l-1.5-4.3-1.5 4.3zm8.7 2h3.5v1.7h-5.6v-10.5h2.1z"/>
</svg>